<svg width="42" height="21" viewBox="0 0 42 21" fill="none" xmlns="http://www.w3.org/2000/svg">
<g id="logo_square 1" clip-path="url(#clip0_1344_41348)">
<g id="Group 860">
<g id="Group 18">
<g id="Clip path group">
<mask id="mask0_1344_41348" style="mask-type:luminance" maskUnits="userSpaceOnUse" x="0" y="0" width="42" height="16">
<g id="clip-path">
<path id="Rectangle 4" d="M42 0.572754H0V15.3509H42V0.572754Z" fill="white"/>
</g>
</mask>
<g mask="url(#mask0_1344_41348)">
<g id="Group 17">
<path id="Path 11" d="M9.66396 8.08851L13.5255 4.02238C13.3678 3.73939 13.1904 3.46913 12.9947 3.21384L10.2186 6.13704L9.34487 5.21544L12.1275 2.28584C11.7652 1.96759 11.3698 1.69349 10.9489 1.46878C9.79739 0.859259 8.523 0.551864 7.23431 0.572777C5.94554 0.552174 4.67113 0.859937 3.51968 1.46984C2.44033 2.04543 1.54243 2.93794 0.934538 4.03944C0.292138 5.23427 -0.0309614 6.59 -0.000449525 7.96264C-0.0310786 9.33547 0.292026 10.6914 0.934538 11.8864C1.54206 12.9872 2.43921 13.8792 3.51766 14.4549C4.66924 15.0642 5.94364 15.3715 7.23228 15.3504C8.52093 15.3714 9.7953 15.0642 10.9469 14.4549C11.5919 14.1107 12.1754 13.6515 12.6715 13.0976L9.66194 9.92851C9.43052 9.68434 9.30056 9.35347 9.30056 9.00851C9.30056 8.66355 9.43052 8.33268 9.66194 8.08851M8.497 9.81598C8.34209 10.0119 8.14815 10.1695 7.92893 10.2777C7.70972 10.3859 7.47058 10.4419 7.22849 10.4419C6.98639 10.4419 6.74726 10.3859 6.52804 10.2777C6.30882 10.1695 6.11488 10.0119 5.95997 9.81598C5.59308 9.27862 5.41689 8.62275 5.46209 7.96264C5.41658 7.30056 5.59749 6.64318 5.97213 6.10931C6.12383 5.91121 6.31624 5.75193 6.53487 5.64347C6.7535 5.53502 6.99265 5.48021 7.23431 5.48318C7.47597 5.48021 7.71512 5.53502 7.93375 5.64347C8.15238 5.75193 8.34479 5.91121 8.49649 6.10931C8.87113 6.64318 9.05204 7.30056 9.00653 7.96264C9.05209 8.62473 8.87117 9.28212 8.49649 9.81598" fill="black"/>
<path id="Path 12" d="M14.4695 7.96156C14.4789 7.05215 14.3455 6.14736 14.0749 5.28369L10.5381 9.00796L13.4352 12.0586C13.4692 12.0016 13.5026 11.944 13.5365 11.8858C14.1791 10.6907 14.5022 9.33457 14.4715 7.96156M12.8725 9.57809C12.8725 9.4494 12.9088 9.3236 12.9767 9.2166C13.0446 9.1096 13.1411 9.0262 13.254 8.97695C13.3669 8.92771 13.4911 8.91482 13.611 8.93993C13.7309 8.96503 13.841 9.027 13.9274 9.118C14.0138 9.209 14.0726 9.32494 14.0965 9.45115C14.1203 9.57737 14.1081 9.7082 14.0613 9.82709C14.0146 9.94598 13.9354 10.0476 13.8337 10.1191C13.7321 10.1906 13.6127 10.2288 13.4904 10.2288C13.3266 10.2288 13.1694 10.1602 13.0535 10.0382C12.9376 9.91616 12.8725 9.75066 12.8725 9.57809Z" fill="black"/>
<path id="Path 13" d="M20.1507 6.24836L16.6559 2.56836L16.1692 3.08089V10.4425L20.1507 6.24836Z" fill="black"/>
<path id="Path 14" d="M21.5575 3.41243V0.753767H16.1684V1.38043C16.3953 1.28098 16.6449 1.25324 16.8865 1.3006C17.1282 1.34795 17.3515 1.46835 17.5293 1.6471L21.0241 5.3271C21.2558 5.57104 21.3859 5.90187 21.3859 6.24683C21.3859 6.59179 21.2558 6.92262 21.0241 7.16657L16.1674 12.2807V15.1692H21.5575V9.2663C21.5575 8.31199 21.7962 7.64728 22.2736 7.27217C22.9481 6.84244 23.7334 6.64569 24.5194 6.7095H26.0491V0.651367C25.1733 0.656727 24.3161 0.917782 23.5728 1.4055C22.7726 1.91519 22.0854 2.59953 21.5575 3.41243ZM17.6347 13.9458L16.761 13.0258L20.469 9.12123L21.3427 10.0423L17.6347 13.9458Z" fill="black"/>
<path id="Path 15" d="M36.6108 0.753418V8.39715C36.6403 8.98662 36.4581 9.56619 36.1003 10.0206C35.7254 10.4059 35.2222 10.6216 34.6983 10.6216C34.1744 10.6216 33.6713 10.4059 33.2963 10.0206C32.9312 9.56987 32.7443 8.98876 32.7741 8.39715V0.753418H27.4078V9.11288C27.4078 11.0044 27.8488 12.5042 28.7308 13.6121C29.1825 14.1667 29.7489 14.6049 30.3865 14.893C31.0242 15.1811 31.716 15.3114 32.409 15.2739C33.2855 15.2981 34.1525 15.0772 34.9217 14.6339C35.6027 14.2308 36.1816 13.661 36.6093 12.9726V15.171H41.9984V0.753418H36.6108Z" fill="black"/>
</g>
</g>
</g>
</g>
<path id="Path 16" d="M1.57511 18.6212V17.7519H2.01121C2.3303 17.7519 2.46705 17.9199 2.46705 18.1866C2.46705 18.4532 2.3308 18.6212 2.01121 18.6212H1.57511ZM3.2825 18.1866C3.2825 17.5492 2.87731 17.0703 2.07198 17.0703H0.772827V20.537H1.57511V19.2922H2.07249C2.22279 19.3141 2.37582 19.302 2.52131 19.2566C2.66679 19.2111 2.80136 19.1335 2.91597 19.0287C3.03058 18.924 3.12259 18.7947 3.18581 18.6494C3.24903 18.5042 3.282 18.3463 3.2825 18.1866ZM10.2544 20.538H11.0567V17.0714H10.2544V18.4298H9.00589V17.0714H8.2036V20.538H9.00589V19.1103H10.2544V20.538ZM19.3789 18.794C19.3846 18.5595 19.3449 18.3262 19.2623 18.1084C19.1797 17.8905 19.0559 17.6926 18.8983 17.5267C18.7408 17.3608 18.5529 17.2304 18.346 17.1434C18.1391 17.0564 17.9175 17.0147 17.6948 17.0207C17.4717 17.0148 17.2497 17.0566 17.0423 17.1435C16.835 17.2304 16.6464 17.3606 16.4882 17.5264C16.3299 17.6921 16.2051 17.8898 16.1214 18.1077C16.0377 18.3256 15.9968 18.559 16.0011 18.794C15.9967 19.0292 16.0376 19.263 16.1212 19.4811C16.2049 19.6993 16.3295 19.8974 16.4878 20.0635C16.646 20.2296 16.8345 20.3603 17.0419 20.4477C17.2493 20.5351 17.4714 20.5774 17.6948 20.5722C17.9176 20.5771 18.1391 20.5345 18.3458 20.4468C18.5525 20.3591 18.7402 20.2283 18.8976 20.0621C19.0549 19.8959 19.1787 19.6978 19.2613 19.4799C19.3439 19.2619 19.3843 19.0286 19.3789 18.794ZM16.8221 18.794C16.8073 18.6655 16.8191 18.5351 16.8565 18.4118C16.894 18.2885 16.9562 18.1751 17.0391 18.0794C17.1219 17.9837 17.2234 17.908 17.3365 17.8574C17.4497 17.8067 17.5719 17.7824 17.6948 17.786C17.8172 17.7834 17.9388 17.8084 18.0513 17.8594C18.1638 17.9105 18.2646 17.9863 18.3469 18.0818C18.4291 18.1774 18.491 18.2904 18.5283 18.4132C18.5655 18.5361 18.5774 18.6659 18.5629 18.794C18.5766 18.9219 18.5642 19.0515 18.5267 19.174C18.4891 19.2965 18.4272 19.4092 18.3451 19.5045C18.263 19.5999 18.1625 19.6757 18.0504 19.727C17.9383 19.7783 17.817 19.8039 17.6948 19.802C17.5721 19.8047 17.4503 19.7797 17.3376 19.7287C17.2249 19.6777 17.1238 19.602 17.0411 19.5066C16.9584 19.4111 16.896 19.2982 16.8582 19.1753C16.8203 19.0524 16.8084 18.9224 16.8221 18.794ZM26.4723 17.0698V19.2186L25.1301 17.0703H24.3278V20.537H25.1301V18.3967L26.4718 20.5359H27.2726V17.0692L26.4723 17.0698ZM34.3772 17.0698H32.3593V20.5364H34.3767V19.8596H33.1611V19.0991H34.2354V18.45H33.1616V17.7487H34.3772V17.0698ZM41.7943 19.505C41.7943 18.3439 40.1664 18.6159 40.1664 18.0116C40.1646 17.9661 40.1724 17.9207 40.1893 17.8788C40.2062 17.8368 40.2317 17.7993 40.264 17.7691C40.2964 17.7388 40.3347 17.7165 40.3763 17.7037C40.4178 17.691 40.4615 17.6881 40.5042 17.6954C40.5519 17.6917 40.5997 17.6983 40.6449 17.7146C40.6901 17.731 40.7316 17.7567 40.7671 17.7904C40.8026 17.8241 40.8312 17.865 40.8513 17.9106C40.8715 17.9562 40.8826 18.0056 40.8841 18.0559H41.7522C41.7193 17.394 41.2361 17.0186 40.5184 17.0186C39.8286 17.0186 39.3175 17.3839 39.3175 18.041C39.3079 19.2708 40.955 18.9252 40.955 19.5674C40.955 19.77 40.8031 19.8932 40.5701 19.8932C40.5182 19.8976 40.466 19.8907 40.4167 19.8729C40.3675 19.855 40.3223 19.8266 40.284 19.7895C40.2456 19.7524 40.215 19.7074 40.194 19.6572C40.173 19.607 40.162 19.5529 40.1618 19.498H39.3069C39.3302 20.1994 39.8838 20.57 40.5924 20.57C40.7389 20.5907 40.8878 20.5789 41.0298 20.5355C41.1717 20.492 41.3034 20.4177 41.4165 20.3175C41.5295 20.2173 41.6215 20.0933 41.6864 19.9534C41.7513 19.8136 41.7877 19.661 41.7933 19.5055L41.7943 19.505Z" fill="black"/>
</g>
</g>
<defs>
<clipPath id="clip0_1344_41348">
<rect width="42" height="20" fill="white" transform="translate(0 0.572754)"/>
</clipPath>
</defs>
</svg>
